Description:
General
Complete name                    : KBC Season Action Replay Special 1st Nov XviD MP4-kasimji.mp4
Format                           : MPEG-4
Format profile                   : Base Media / Version 2
Codec ID                         : mp42
File size                        : 212 MiB
Duration                         : 55mn 56s
Overall bit rate                 : 529 Kbps
Encoded date                     : UTC 2010-10-31 23:15:26
Tagged date                      : UTC 2010-10-31 23:15:26

Video
ID                               : 201
Format                           : AVC
Format/Info                      : Advanced Video Codec
Format profile                   : High@L2.1
Format settings, CABAC           : Yes
Format settings, ReFrames        : 2 frames
Codec ID                         : avc1
Codec ID/Info                    : Advanced Video Coding
Duration                         : 55mn 56s
Bit rate mode                    : Variable
Bit rate                         : 461 Kbps
Maximum bit rate                 : 1 424 Kbps
Width                            : 480 pixels
Height                           : 360 pixels
Display aspect ratio             : 4:3
Frame rate mode                  : Variable
Frame rate                       : 29.970 fps
Original frame rate              : 25.000 fps
Minimum frame rate               : 14.985 fps
Maximum frame rate               : 29.970 fps
Color space                      : YUV
Chroma subsampling               : 4:2:0
Bit depth                        : 8 bits
Scan type                        : Progressive
Bits/(Pixel*Frame)               : 0.089
Stream size                      : 184 MiB (87%)
Writing library                  : x264 core 68
Tagged date                      : UTC 2010-10-31 23:15:28

Audio
ID                               : 101
Format                           : AAC
Format/Info                      : Advanced Audio Codec
Format version                   : Version 4
Format profile                   : LC
Codec ID                         : 40
Duration                         : 55mn 56s
Bit rate mode                    : Variable
Bit rate                         : 64.2 Kbps
Maximum bit rate                 : 73.7 Kbps
Channel(s)                       : 2 channels
Channel positions                : Front: L R
Sampling rate                    : 48.0 KHz
Stream size                      : 25.7 MiB (12%)
Encoded date                     : UTC 2010-10-31 23:15:27
Tagged date                      : UTC 2010-10-31 23:15:28